<svg class="ys-logo" xmlns="http://www.w3.org/2000/svg" xmlns:xlink="http://www.w3.org/1999/xlink" viewBox="0 0 640 640" width="50" height="50"><path d="M320 570.09c-137.98 0-250-112.02-250-250 0-137.98 112.02-250 250-250 137.98 0 250 112.02 250 250 0 137.98-112.02 250-250 250z" /><path d="M114 461.75c51.74-7.65 120.74-54.86 207-141.66" /><path d="M527 180.15c-51.74 7.61-120.74 54.6-207 140.98" /><path d="M69.8 321.45c51.49-7.61 120.16-54.6 206-140.98" /><path d="M163.02 513.79c51.24-7.57 119.58-54.34 205-140.3" /><path d="M476 124.87c-51.49 7.61-120.16 54.6-206 140.98" /><path d="M569.45 317.55c-51.74 7.65-120.74 54.86-207 141.66" /></svg>